<svg xmlns="http://www.w3.org/2000/svg" width="237" height="40" viewBox="0 0 237 40">
  <g fill="none" fill-rule="evenodd" transform="translate(0 -4)">
    <path fill="#FFF" d="M93.68,31.04 C93.68,32.1600056 93.4533356,33.2933276 93,34.44 C92.5466644,35.5866724 91.8800044,36.6199954 91,37.54 C90.1199956,38.4600046 89.0266732,39.2066638 87.72,39.78 C86.4133268,40.3533362 84.8800088,40.64 83.12,40.64 C81.8399936,40.64 80.766671,40.5000014 79.9,40.22 C79.033329,39.9399986 78.3400026,39.5800022 77.82,39.14 C77.2999974,38.6999978 76.9333344,38.1933362 76.72,37.62 C76.5066656,37.0466638 76.4,36.4800028 76.4,35.92 C76.4,35.119996 76.6066646,34.4333362 77.02,33.86 C77.4333354,33.2866638 77.9466636,33.0266664 78.56,33.08 C79.093336,33.1066668 79.5066652,33.2399988 79.8,33.48 C80.0933348,33.7200012 80.2799996,33.9999984 80.36,34.32 C80.4400004,34.6400016 80.4333338,34.9533318 80.34,35.26 C80.2466662,35.5666682 80.0866678,35.7999992 79.86,35.96 C79.6333322,36.1200008 79.353335,36.1733336 79.02,36.12 C78.686665,36.0666664 78.320002,35.8266688 77.92,35.4 C77.786666,35.2933328 77.6733338,35.2933328 77.58,35.4 C77.4866662,35.5066672 77.44,35.6799988 77.44,35.92 C77.44,37.120006 77.9333284,38.0333302 78.92,38.66 C79.9066716,39.2866698 81.266658,39.6 83,39.6 C83.8800044,39.6 84.686663,39.4200018 85.42,39.06 C86.153337,38.6999982 86.7933306,38.1733368 87.34,37.48 C87.8866694,36.7866632 88.3066652,35.9466716 88.6,34.96 C88.8933348,33.9733284 89.04,32.8533396 89.04,31.6 C89.04,30.533328 88.8466686,29.6200038 88.46,28.86 C88.0733314,28.0999962 87.5733364,27.4666692 86.96,26.96 C86.3466636,26.4533308 85.673337,26.066668 84.94,25.8 C84.206663,25.533332 83.4800036,25.333334 82.76,25.2 C82.1999972,25.0933328 81.7600016,24.8933348 81.44,24.6 C81.1199984,24.3066652 80.926667,23.9800018 80.86,23.62 C80.793333,23.2599982 80.8399992,22.9000018 81,22.54 C81.1600008,22.1799982 81.439998,21.8933344 81.84,21.68 C81.973334,21.5999996 82.1333324,21.5333336 82.32,21.48 C82.5066676,21.4266664 82.6933324,21.333334 82.88,21.2 C83.4666696,20.8266648 83.9533314,20.3200032 84.34,19.68 C84.7266686,19.0399968 84.9999992,18.353337 85.16,17.62 C85.3200008,16.886663 85.3600004,16.1266706 85.28,15.34 C85.1999996,14.5533294 84.993335,13.8200034 84.66,13.14 C84.326665,12.4599966 83.860003,11.8600026 83.26,11.34 C82.659997,10.8199974 81.9200044,10.4533344 81.04,10.24 C80.3466632,10.24 79.700003,10.5266638 79.1,11.1 C78.499997,11.6733362 77.9266694,12.426662 77.38,13.36 C76.8333306,14.293338 76.3200024,15.3466608 75.84,16.52 C75.3599976,17.6933392 74.9066688,18.879994 74.48,20.08 C74.0533312,21.280006 73.640002,22.4399944 73.24,23.56 C72.839998,24.6800056 72.4533352,25.6266628 72.08,26.4 C73.2533392,27.7866736 74.0799976,29.113327 74.56,30.38 C75.0400024,31.646673 75.246667,32.7866616 75.18,33.8 C75.113333,34.8133384 74.813336,35.686663 74.28,36.42 C73.746664,37.153337 73.0666708,37.6799984 72.24,38 C71.4133292,38.3200016 70.4866718,38.413334 69.46,38.28 C68.4333282,38.146666 67.386672,37.7200036 66.32,37 C66.186666,37.1600008 65.9733348,37.4133316 65.68,37.76 C65.3866652,38.1066684 65.0133356,38.4733314 64.56,38.86 C64.1066644,39.2466686 63.5933362,39.5999984 63.02,39.92 C62.4466638,40.2400016 61.82667,40.4399996 61.16,40.52 C60.226662,40.653334 59.4533364,40.5666682 58.84,40.26 C58.2266636,39.9533318 57.7600016,39.5400026 57.44,39.02 C57.1199984,38.4999974 56.96,37.9200032 56.96,37.28 C56.96,36.6399968 57.1133318,36.020003 57.42,35.42 C57.7266682,34.819997 58.1933302,34.3066688 58.82,33.88 C59.4466698,33.4533312 60.2399952,33.1866672 61.2,33.08 C62.0266708,32.9999996 62.9466616,33.059999 63.96,33.26 C64.9733384,33.460001 65.9733284,33.826664 66.96,34.36 C67.360002,33.826664 67.7466648,33.2200034 68.12,32.54 C68.4933352,31.8599966 68.8399984,31.1666702 69.16,30.46 C69.4800016,29.7533298 69.773332,29.0866698 70.04,28.46 C70.306668,27.8333302 70.5333324,27.3066688 70.72,26.88 C70.6133328,26.7733328 70.3533354,26.5266686 69.94,26.14 C69.5266646,25.7533314 69.086669,25.22667 68.62,24.56 C68.153331,23.89333 67.7333352,23.0866714 67.36,22.14 C66.9866648,21.1933286 66.8,20.0800064 66.8,18.8 C66.8,17.333326 67.0533308,15.9933394 67.56,14.78 C68.0666692,13.5666606 68.8066618,12.526671 69.78,11.66 C70.7533382,10.793329 71.9466596,10.1200024 73.36,9.64 C74.7733404,9.1599976 76.3599912,8.92 78.12,8.92 C79.986676,8.92 81.619993,9.1133314 83.02,9.5 C84.420007,9.8866686 85.5799954,10.3999968 86.5,11.04 C87.4200046,11.6800032 88.113331,12.4133292 88.58,13.24 C89.046669,14.0666708 89.28,14.9199956 89.28,15.8 C89.28,16.4933368 89.146668,17.17333 88.88,17.84 C88.613332,18.50667 88.213336,19.1333304 87.68,19.72 C87.146664,20.3066696 86.4866706,20.833331 85.7,21.3 C84.9133294,21.766669 83.986672,22.133332 82.92,22.4 C82.8933332,22.4 82.8200006,22.4266664 82.7,22.48 C82.5799994,22.5333336 82.453334,22.5999996 82.32,22.68 C82.186666,22.7600004 82.0733338,22.8733326 81.98,23.02 C81.8866662,23.1666674 81.8799996,23.3333324 81.96,23.52 C82.093334,23.8933352 82.5199964,24.046667 83.24,23.98 C83.9600036,23.913333 84.853328,23.88 85.92,23.88 C87.2266732,23.88 88.3666618,24.079998 89.34,24.48 C90.3133382,24.880002 91.1199968,25.4066634 91.76,26.06 C92.4000032,26.7133366 92.8799984,27.473329 93.2,28.34 C93.5200016,29.206671 93.68,30.106662 93.68,31.04 Z M79.44,9.92 C78.1866604,9.7599992 77.0200054,9.9199976 75.94,10.4 C74.8599946,10.8800024 73.9066708,11.553329 73.08,12.42 C72.2533292,13.286671 71.5800026,14.2999942 71.06,15.46 C70.5399974,16.6200058 70.1866676,17.799994 70,19 C69.8133324,20.200006 69.819999,21.366661 70.02,22.5 C70.220001,23.633339 70.65333,24.6133292 71.32,25.44 C71.6133348,24.8266636 71.9466648,24.020005 72.32,23.02 C72.6933352,22.019995 73.0866646,20.9466724 73.5,19.8 C73.9133354,18.6533276 74.353331,17.5066724 74.82,16.36 C75.286669,15.2133276 75.7666642,14.1666714 76.26,13.22 C76.7533358,12.2733286 77.266664,11.500003 77.8,10.9 C78.333336,10.299997 78.8799972,9.9733336 79.44,9.92 Z M71.56,27.64 C71.3199988,28.1466692 71.0600014,28.7133302 70.78,29.34 C70.4999986,29.9666698 70.2066682,30.6066634 69.9,31.26 C69.5933318,31.9133366 69.2666684,32.5533302 68.92,33.18 C68.5733316,33.8066698 68.2133352,34.3599976 67.84,34.84 C69.0133392,35.4000028 70.066662,35.5666678 71,35.34 C71.933338,35.1133322 72.6199978,34.6266704 73.06,33.88 C73.5000022,33.1333296 73.6266676,32.2066722 73.44,31.1 C73.2533324,29.9933278 72.626672,28.840006 71.56,27.64 Z M65.4,36.52 C64.9733312,36.253332 64.4000036,36.0133344 63.68,35.8 C62.9599964,35.5866656 62.2533368,35.48 61.56,35.48 C60.89333,35.48 60.3066692,35.6266652 59.8,35.92 C59.2933308,36.2133348 59.04,36.7466628 59.04,37.52 C59.04,37.8933352 59.1866652,38.2733314 59.48,38.66 C59.7733348,39.0466686 60.1933306,39.2799996 60.74,39.36 C61.2866694,39.4400004 61.9533294,39.280002 62.74,38.88 C63.5266706,38.479998 64.4133284,37.6933392 65.4,36.52 Z M107.84,23.48 C108.026668,23.48 108.166666,23.5399994 108.26,23.66 C108.353334,23.7800006 108.4,23.906666 108.4,24.04 C108.4,24.173334 108.333334,24.2999994 108.2,24.42 C108.066666,24.5400006 107.866668,24.5866668 107.6,24.56 C106.879996,24.5066664 106.253336,24.48 105.72,24.48 L104.32,24.48 C103.946665,25.3333376 103.526669,26.326661 103.06,27.46 C102.593331,28.593339 102.126669,29.7399942 101.66,30.9 C101.193331,32.0600058 100.740002,33.1799946 100.3,34.26 C99.8599978,35.3400054 99.4933348,36.279996 99.2,37.08 C98.9599988,37.7200032 98.9266658,38.2199982 99.1,38.58 C99.2733342,38.9400018 99.626664,39.12 100.16,39.12 C101.040004,39.12 101.799997,38.8133364 102.44,38.2 C103.080003,37.5866636 103.706664,36.880004 104.32,36.08 C104.426667,35.946666 104.533333,35.88 104.64,35.88 C104.773334,35.88 104.886666,35.9333328 104.98,36.04 C105.073334,36.1466672 105.133333,36.2733326 105.16,36.42 C105.186667,36.5666674 105.146667,36.7199992 105.04,36.88 C104.479997,37.680004 103.940003,38.313331 103.42,38.78 C102.899997,39.246669 102.386669,39.5999988 101.88,39.84 C101.373331,40.0800012 100.886669,40.2399996 100.42,40.32 C99.953331,40.4000004 99.5066688,40.44 99.08,40.44 C98.3866632,40.44 97.806669,40.3133346 97.34,40.06 C96.873331,39.8066654 96.5266678,39.4666688 96.3,39.04 C96.0733322,38.6133312 95.96,38.1200028 95.96,37.56 C95.96,36.9733304 96.0799988,36.3733364 96.32,35.76 C96.586668,35.0399964 96.9066648,34.213338 97.28,33.28 C97.6533352,32.346662 98.0466646,31.3666718 98.46,30.34 C98.8733354,29.3133282 99.279998,28.300005 99.68,27.3 C100.080002,26.299995 100.466665,25.3733376 100.84,24.52 C100.599999,24.4933332 100.373334,24.4866666 100.16,24.5 C99.9466656,24.5133334 99.6933348,24.52 99.4,24.52 C99.1599988,24.52 98.9933338,24.4600006 98.9,24.34 C98.8066662,24.2199994 98.7799998,24.0866674 98.82,23.94 C98.8600002,23.7933326 98.9599992,23.6733338 99.12,23.58 C99.2800008,23.4866662 99.4799988,23.4533332 99.72,23.48 C100.013335,23.5066668 100.253332,23.52 100.44,23.52 C100.626668,23.52 100.906665,23.5066668 101.28,23.48 C101.546668,22.8399968 101.753333,22.320002 101.9,21.92 C102.046667,21.519998 102.199999,21.1066688 102.36,20.68 C102.493334,20.279998 102.746665,20.08 103.12,20.08 L104.32,20.08 C104.90667,20.08 105.346665,20.0733334 105.64,20.06 C105.933335,20.0466666 106.013334,20.1866652 105.88,20.48 C105.693332,20.9333356 105.493334,21.426664 105.28,21.96 C105.066666,22.493336 104.880001,23.0133308 104.72,23.52 C105.333336,23.5466668 105.866664,23.5533334 106.32,23.54 C106.773336,23.5266666 107.279997,23.5066668 107.84,23.48 Z M120.28,23.48 C120.466668,23.48 120.606666,23.5399994 120.7,23.66 C120.793334,23.7800006 120.84,23.906666 120.84,24.04 C120.84,24.173334 120.773334,24.2999994 120.64,24.42 C120.506666,24.5400006 120.306668,24.5866668 120.04,24.56 C119.319996,24.5066664 118.693336,24.48 118.16,24.48 L116.76,24.48 C116.386665,25.3333376 115.966669,26.326661 115.5,27.46 C115.033331,28.593339 114.566669,29.7399942 114.1,30.9 C113.633331,32.0600058 113.180002,33.1799946 112.74,34.26 C112.299998,35.3400054 111.933335,36.279996 111.64,37.08 C111.399999,37.7200032 111.366666,38.2199982 111.54,38.58 C111.713334,38.9400018 112.066664,39.12 112.6,39.12 C113.480004,39.12 114.239997,38.8133364 114.88,38.2 C115.520003,37.5866636 116.146664,36.880004 116.76,36.08 C116.866667,35.946666 116.973333,35.88 117.08,35.88 C117.213334,35.88 117.326666,35.9333328 117.42,36.04 C117.513334,36.1466672 117.573333,36.2733326 117.6,36.42 C117.626667,36.5666674 117.586667,36.7199992 117.48,36.88 C116.919997,37.680004 116.380003,38.313331 115.86,38.78 C115.339997,39.246669 114.826669,39.5999988 114.32,39.84 C113.813331,40.0800012 113.326669,40.2399996 112.86,40.32 C112.393331,40.4000004 111.946669,40.44 111.52,40.44 C110.826663,40.44 110.246669,40.3133346 109.78,40.06 C109.313331,39.8066654 108.966668,39.4666688 108.74,39.04 C108.513332,38.6133312 108.4,38.1200028 108.4,37.56 C108.4,36.9733304 108.519999,36.3733364 108.76,35.76 C109.026668,35.0399964 109.346665,34.213338 109.72,33.28 C110.093335,32.346662 110.486665,31.3666718 110.9,30.34 C111.313335,29.3133282 111.719998,28.300005 112.12,27.3 C112.520002,26.299995 112.906665,25.3733376 113.28,24.52 C113.039999,24.4933332 112.813334,24.4866666 112.6,24.5 C112.386666,24.5133334 112.133335,24.52 111.84,24.52 C111.599999,24.52 111.433334,24.4600006 111.34,24.34 C111.246666,24.2199994 111.22,24.0866674 111.26,23.94 C111.3,23.7933326 111.399999,23.6733338 111.56,23.58 C111.720001,23.4866662 111.919999,23.4533332 112.16,23.48 C112.453335,23.5066668 112.693332,23.52 112.88,23.52 C113.066668,23.52 113.346665,23.5066668 113.72,23.48 C113.986668,22.8399968 114.193333,22.320002 114.34,21.92 C114.486667,21.519998 114.639999,21.1066688 114.8,20.68 C114.933334,20.279998 115.186665,20.08 115.56,20.08 L116.76,20.08 C117.34667,20.08 117.786665,20.0733334 118.08,20.06 C118.373335,20.0466666 118.453334,20.1866652 118.32,20.48 C118.133332,20.9333356 117.933334,21.426664 117.72,21.96 C117.506666,22.493336 117.320001,23.0133308 117.16,23.52 C117.773336,23.5466668 118.306664,23.5533334 118.76,23.54 C119.213336,23.5266666 119.719997,23.5066668 120.28,23.48 Z M137.04,25.16 C136.906666,25.7733364 136.660002,26.2733314 136.3,26.66 C135.939998,27.0466686 135.413337,27.24 134.72,27.24 C134.106664,27.24 133.706668,27.0200022 133.52,26.58 C133.333332,26.1399978 133.346666,25.7466684 133.56,25.4 C133.693334,25.1599988 133.78,24.9333344 133.82,24.72 C133.86,24.5066656 133.773334,24.4133332 133.56,24.44 C132.706662,24.5466672 131.793338,25.0399956 130.82,25.92 C129.846662,26.8000044 128.873338,27.9266598 127.9,29.3 C126.926662,30.6733402 125.993338,32.2466578 125.1,34.02 C124.206662,35.7933422 123.413337,37.6399904 122.72,39.56 C122.586666,39.9333352 122.346668,40.1000002 122,40.06 C121.653332,40.0199998 121.253336,40 120.8,40 C120.559999,40 120.313335,40.0133332 120.06,40.04 C119.806665,40.0666668 119.586668,40.0733334 119.4,40.06 C119.213332,40.0466666 119.086667,40.006667 119.02,39.94 C118.953333,39.873333 118.96,39.7466676 119.04,39.56 C119.866671,37.8533248 120.646663,36.233341 121.38,34.7 C122.113337,33.166659 122.77333,31.7600064 123.36,30.48 C123.94667,29.1999936 124.433331,28.0666716 124.82,27.08 C125.206669,26.0933284 125.466666,25.2800032 125.6,24.64 C125.333332,24.6666668 124.980002,24.6533336 124.54,24.6 C124.099998,24.5466664 123.706668,24.4933336 123.36,24.44 C123.119999,24.4133332 122.953334,24.3400006 122.86,24.22 C122.766666,24.0999994 122.733333,23.973334 122.76,23.84 C122.786667,23.706666 122.873333,23.6000004 123.02,23.52 C123.166667,23.4399996 123.346666,23.4133332 123.56,23.44 C123.853335,23.4933336 124.359996,23.5599996 125.08,23.64 C125.800004,23.7200004 126.506663,23.7333336 127.2,23.68 C127.413334,23.6533332 127.686665,23.5933338 128.02,23.5 C128.353335,23.4066662 128.666665,23.3200004 128.96,23.24 C129.173334,23.1866664 129.359999,23.193333 129.52,23.26 C129.680001,23.326667 129.706667,23.4666656 129.6,23.68 C129.386666,24.080002 129.033336,24.7533286 128.54,25.7 C128.046664,26.6466714 127.573336,27.7066608 127.12,28.88 C128.320006,27.1999916 129.579993,25.8000056 130.9,24.68 C132.220007,23.5599944 133.50666,23 134.76,23 C135.213336,23 135.593332,23.066666 135.9,23.2 C136.206668,23.333334 136.453332,23.5066656 136.64,23.72 C136.826668,23.9333344 136.946666,24.1666654 137,24.42 C137.053334,24.6733346 137.066667,24.9199988 137.04,25.16 Z M172.04,31.04 C172.04,32.1600056 171.813336,33.2933276 171.36,34.44 C170.906664,35.5866724 170.240004,36.6199954 169.36,37.54 C168.479996,38.4600046 167.386673,39.2066638 166.08,39.78 C164.773327,40.3533362 163.240009,40.64 161.48,40.64 C160.199994,40.64 159.126671,40.5000014 158.26,40.22 C157.393329,39.9399986 156.700003,39.5800022 156.18,39.14 C155.659997,38.6999978 155.293334,38.1933362 155.08,37.62 C154.866666,37.0466638 154.76,36.4800028 154.76,35.92 C154.76,35.119996 154.966665,34.4333362 155.38,33.86 C155.793335,33.2866638 156.306664,33.0266664 156.92,33.08 C157.453336,33.1066668 157.866665,33.2399988 158.16,33.48 C158.453335,33.7200012 158.64,33.9999984 158.72,34.32 C158.8,34.6400016 158.793334,34.9533318 158.7,35.26 C158.606666,35.5666682 158.446668,35.7999992 158.22,35.96 C157.993332,36.1200008 157.713335,36.1733336 157.38,36.12 C157.046665,36.0666664 156.680002,35.8266688 156.28,35.4 C156.146666,35.2933328 156.033334,35.2933328 155.94,35.4 C155.846666,35.5066672 155.8,35.6799988 155.8,35.92 C155.8,37.120006 156.293328,38.0333302 157.28,38.66 C158.266672,39.2866698 159.626658,39.6 161.36,39.6 C162.240004,39.6 163.046663,39.4200018 163.78,39.06 C164.513337,38.6999982 165.153331,38.1733368 165.7,37.48 C166.246669,36.7866632 166.666665,35.9466716 166.96,34.96 C167.253335,33.9733284 167.4,32.8533396 167.4,31.6 C167.4,30.533328 167.206669,29.6200038 166.82,28.86 C166.433331,28.0999962 165.933336,27.4666692 165.32,26.96 C164.706664,26.4533308 164.033337,26.066668 163.3,25.8 C162.566663,25.533332 161.840004,25.333334 161.12,25.2 C160.559997,25.0933328 160.120002,24.8933348 159.8,24.6 C159.479998,24.3066652 159.286667,23.9800018 159.22,23.62 C159.153333,23.2599982 159.199999,22.9000018 159.36,22.54 C159.520001,22.1799982 159.799998,21.8933344 160.2,21.68 C160.333334,21.5999996 160.493332,21.5333336 160.68,21.48 C160.866668,21.4266664 161.053332,21.333334 161.24,21.2 C161.82667,20.8266648 162.313331,20.3200032 162.7,19.68 C163.086669,19.0399968 163.359999,18.353337 163.52,17.62 C163.680001,16.886663 163.72,16.1266706 163.64,15.34 C163.56,14.5533294 163.353335,13.8200034 163.02,13.14 C162.686665,12.4599966 162.220003,11.8600026 161.62,11.34 C161.019997,10.8199974 160.280004,10.4533344 159.4,10.24 C158.706663,10.24 158.060003,10.5266638 157.46,11.1 C156.859997,11.6733362 156.286669,12.426662 155.74,13.36 C155.193331,14.293338 154.680002,15.3466608 154.2,16.52 C153.719998,17.6933392 153.266669,18.879994 152.84,20.08 C152.413331,21.280006 152.000002,22.4399944 151.6,23.56 C151.199998,24.6800056 150.813335,25.6266628 150.44,26.4 C151.613339,27.7866736 152.439998,29.113327 152.92,30.38 C153.400002,31.646673 153.606667,32.7866616 153.54,33.8 C153.473333,34.8133384 153.173336,35.686663 152.64,36.42 C152.106664,37.153337 151.426671,37.6799984 150.6,38 C149.773329,38.3200016 148.846672,38.413334 147.82,38.28 C146.793328,38.146666 145.746672,37.7200036 144.68,37 C144.546666,37.1600008 144.333335,37.4133316 144.04,37.76 C143.746665,38.1066684 143.373336,38.4733314 142.92,38.86 C142.466664,39.2466686 141.953336,39.5999984 141.38,39.92 C140.806664,40.2400016 140.18667,40.4399996 139.52,40.52 C138.586662,40.653334 137.813336,40.5666682 137.2,40.26 C136.586664,39.9533318 136.120002,39.5400026 135.8,39.02 C135.479998,38.4999974 135.32,37.9200032 135.32,37.28 C135.32,36.6399968 135.473332,36.020003 135.78,35.42 C136.086668,34.819997 136.55333,34.3066688 137.18,33.88 C137.80667,33.4533312 138.599995,33.1866672 139.56,33.08 C140.386671,32.9999996 141.306662,33.059999 142.32,33.26 C143.333338,33.460001 144.333328,33.826664 145.32,34.36 C145.720002,33.826664 146.106665,33.2200034 146.48,32.54 C146.853335,31.8599966 147.199998,31.1666702 147.52,30.46 C147.840002,29.7533298 148.133332,29.0866698 148.4,28.46 C148.666668,27.8333302 148.893332,27.3066688 149.08,26.88 C148.973333,26.7733328 148.713335,26.5266686 148.3,26.14 C147.886665,25.7533314 147.446669,25.22667 146.98,24.56 C146.513331,23.89333 146.093335,23.0866714 145.72,22.14 C145.346665,21.1933286 145.16,20.0800064 145.16,18.8 C145.16,17.333326 145.413331,15.9933394 145.92,14.78 C146.426669,13.5666606 147.166662,12.526671 148.14,11.66 C149.113338,10.793329 150.30666,10.1200024 151.72,9.64 C153.13334,9.1599976 154.719991,8.92 156.48,8.92 C158.346676,8.92 159.979993,9.1133314 161.38,9.5 C162.780007,9.8866686 163.939995,10.3999968 164.86,11.04 C165.780005,11.6800032 166.473331,12.4133292 166.94,13.24 C167.406669,14.0666708 167.64,14.9199956 167.64,15.8 C167.64,16.4933368 167.506668,17.17333 167.24,17.84 C166.973332,18.50667 166.573336,19.1333304 166.04,19.72 C165.506664,20.3066696 164.846671,20.833331 164.06,21.3 C163.273329,21.766669 162.346672,22.133332 161.28,22.4 C161.253333,22.4 161.180001,22.4266664 161.06,22.48 C160.939999,22.5333336 160.813334,22.5999996 160.68,22.68 C160.546666,22.7600004 160.433334,22.8733326 160.34,23.02 C160.246666,23.1666674 160.24,23.3333324 160.32,23.52 C160.453334,23.8933352 160.879996,24.046667 161.6,23.98 C162.320004,23.913333 163.213328,23.88 164.28,23.88 C165.586673,23.88 166.726662,24.079998 167.7,24.48 C168.673338,24.880002 169.479997,25.4066634 170.12,26.06 C170.760003,26.7133366 171.239998,27.473329 171.56,28.34 C171.880002,29.206671 172.04,30.106662 172.04,31.04 Z M157.8,9.92 C156.54666,9.7599992 155.380005,9.9199976 154.3,10.4 C153.219995,10.8800024 152.266671,11.553329 151.44,12.42 C150.613329,13.286671 149.940003,14.2999942 149.42,15.46 C148.899997,16.6200058 148.546668,17.799994 148.36,19 C148.173332,20.200006 148.179999,21.366661 148.38,22.5 C148.580001,23.633339 149.01333,24.6133292 149.68,25.44 C149.973335,24.8266636 150.306665,24.020005 150.68,23.02 C151.053335,22.019995 151.446665,20.9466724 151.86,19.8 C152.273335,18.6533276 152.713331,17.5066724 153.18,16.36 C153.646669,15.2133276 154.126664,14.1666714 154.62,13.22 C155.113336,12.2733286 155.626664,11.500003 156.16,10.9 C156.693336,10.299997 157.239997,9.9733336 157.8,9.92 Z M149.92,27.64 C149.679999,28.1466692 149.420001,28.7133302 149.14,29.34 C148.859999,29.9666698 148.566668,30.6066634 148.26,31.26 C147.953332,31.9133366 147.626668,32.5533302 147.28,33.18 C146.933332,33.8066698 146.573335,34.3599976 146.2,34.84 C147.373339,35.4000028 148.426662,35.5666678 149.36,35.34 C150.293338,35.1133322 150.979998,34.6266704 151.42,33.88 C151.860002,33.1333296 151.986668,32.2066722 151.8,31.1 C151.613332,29.9933278 150.986672,28.840006 149.92,27.64 Z M143.76,36.52 C143.333331,36.253332 142.760004,36.0133344 142.04,35.8 C141.319996,35.5866656 140.613337,35.48 139.92,35.48 C139.25333,35.48 138.666669,35.6266652 138.16,35.92 C137.653331,36.2133348 137.4,36.7466628 137.4,37.52 C137.4,37.8933352 137.546665,38.2733314 137.84,38.66 C138.133335,39.0466686 138.553331,39.2799996 139.1,39.36 C139.646669,39.4400004 140.313329,39.280002 141.1,38.88 C141.886671,38.479998 142.773328,37.6933392 143.76,36.52 Z M190.28,26.36 C190.226666,27.02667 189.853337,27.726663 189.16,28.46 C188.466663,29.193337 187.553339,29.8133308 186.42,30.32 C185.286661,30.8266692 184.006674,31.1599992 182.58,31.32 C181.153326,31.4800008 179.680008,31.3333356 178.16,30.88 C177.653331,31.946672 177.346667,32.9666618 177.24,33.94 C177.133333,34.9133382 177.199999,35.766663 177.44,36.5 C177.680001,37.233337 178.079997,37.8199978 178.64,38.26 C179.200003,38.7000022 179.879996,38.92 180.68,38.92 C181.160002,38.92 181.606665,38.8933336 182.02,38.84 C182.433335,38.7866664 182.846665,38.6666676 183.26,38.48 C183.673335,38.2933324 184.106664,38.0266684 184.56,37.68 C185.013336,37.3333316 185.519997,36.8666696 186.08,36.28 C186.373335,35.9866652 186.639999,35.9333324 186.88,36.12 C187.120001,36.3066676 187.120001,36.5599984 186.88,36.88 C186.106663,37.813338 185.09334,38.646663 183.84,39.38 C182.58666,40.113337 181.146675,40.48 179.52,40.48 C178.239994,40.48 177.206671,40.2933352 176.42,39.92 C175.633329,39.5466648 175.033335,39.0533364 174.62,38.44 C174.206665,37.8266636 173.96,37.120004 173.88,36.32 C173.8,35.519996 173.833333,34.7000042 173.98,33.86 C174.126667,33.0199958 174.366665,32.200004 174.7,31.4 C175.033335,30.599996 175.413331,29.86667 175.84,29.2 C176.346669,28.399996 176.97333,27.633337 177.72,26.9 C178.46667,26.166663 179.286662,25.5200028 180.18,24.96 C181.073338,24.3999972 182.013328,23.953335 183,23.62 C183.986672,23.286665 184.999995,23.12 186.04,23.12 C186.306668,23.12 186.686664,23.153333 187.18,23.22 C187.673336,23.286667 188.159998,23.4266656 188.64,23.64 C189.120002,23.8533344 189.526665,24.1799978 189.86,24.62 C190.193335,25.0600022 190.333334,25.6399964 190.28,26.36 Z M186.56,27.2 C186.773334,26.933332 186.933333,26.633335 187.04,26.3 C187.146667,25.966665 187.166667,25.6533348 187.1,25.36 C187.033333,25.0666652 186.880001,24.8266676 186.64,24.64 C186.399999,24.4533324 186.040002,24.36 185.56,24.36 C185.079998,24.36 184.54667,24.4666656 183.96,24.68 C183.37333,24.8933344 182.773336,25.2266644 182.16,25.68 C181.546664,26.1333356 180.933336,26.7199964 180.32,27.44 C179.706664,28.1600036 179.120003,29.0399948 178.56,30.08 C179.066669,30.2666676 179.659997,30.3666666 180.34,30.38 C181.020003,30.3933334 181.726663,30.2933344 182.46,30.08 C183.193337,29.8666656 183.919996,29.526669 184.64,29.06 C185.360004,28.593331 185.999997,27.9733372 186.56,27.2 Z M204.6,23.48 C204.786668,23.48 204.926666,23.5399994 205.02,23.66 C205.113334,23.7800006 205.16,23.906666 205.16,24.04 C205.16,24.173334 205.093334,24.2999994 204.96,24.42 C204.826666,24.5400006 204.626668,24.5866668 204.36,24.56 C203.639996,24.5066664 203.013336,24.48 202.48,24.48 L201.08,24.48 C200.706665,25.3333376 200.286669,26.326661 199.82,27.46 C199.353331,28.593339 198.886669,29.7399942 198.42,30.9 C197.953331,32.0600058 197.500002,33.1799946 197.06,34.26 C196.619998,35.3400054 196.253335,36.279996 195.96,37.08 C195.719999,37.7200032 195.686666,38.2199982 195.86,38.58 C196.033334,38.9400018 196.386664,39.12 196.92,39.12 C197.800004,39.12 198.559997,38.8133364 199.2,38.2 C199.840003,37.5866636 200.466664,36.880004 201.08,36.08 C201.186667,35.946666 201.293333,35.88 201.4,35.88 C201.533334,35.88 201.646666,35.9333328 201.74,36.04 C201.833334,36.1466672 201.893333,36.2733326 201.92,36.42 C201.946667,36.5666674 201.906667,36.7199992 201.8,36.88 C201.239997,37.680004 200.700003,38.313331 200.18,38.78 C199.659997,39.246669 199.146669,39.5999988 198.64,39.84 C198.133331,40.0800012 197.646669,40.2399996 197.18,40.32 C196.713331,40.4000004 196.266669,40.44 195.84,40.44 C195.146663,40.44 194.566669,40.3133346 194.1,40.06 C193.633331,39.8066654 193.286668,39.4666688 193.06,39.04 C192.833332,38.6133312 192.72,38.1200028 192.72,37.56 C192.72,36.9733304 192.839999,36.3733364 193.08,35.76 C193.346668,35.0399964 193.666665,34.213338 194.04,33.28 C194.413335,32.346662 194.806665,31.3666718 195.22,30.34 C195.633335,29.3133282 196.039998,28.300005 196.44,27.3 C196.840002,26.299995 197.226665,25.3733376 197.6,24.52 C197.359999,24.4933332 197.133334,24.4866666 196.92,24.5 C196.706666,24.5133334 196.453335,24.52 196.16,24.52 C195.919999,24.52 195.753334,24.4600006 195.66,24.34 C195.566666,24.2199994 195.54,24.0866674 195.58,23.94 C195.62,23.7933326 195.719999,23.6733338 195.88,23.58 C196.040001,23.4866662 196.239999,23.4533332 196.48,23.48 C196.773335,23.5066668 197.013332,23.52 197.2,23.52 C197.386668,23.52 197.666665,23.5066668 198.04,23.48 C198.306668,22.8399968 198.513333,22.320002 198.66,21.92 C198.806667,21.519998 198.959999,21.1066688 199.12,20.68 C199.253334,20.279998 199.506665,20.08 199.88,20.08 L201.08,20.08 C201.66667,20.08 202.106665,20.0733334 202.4,20.06 C202.693335,20.0466666 202.773334,20.1866652 202.64,20.48 C202.453332,20.9333356 202.253334,21.426664 202.04,21.96 C201.826666,22.493336 201.640001,23.0133308 201.48,23.52 C202.093336,23.5466668 202.626664,23.5533334 203.08,23.54 C203.533336,23.5266666 204.039997,23.5066668 204.6,23.48 Z M217.04,23.48 C217.226668,23.48 217.366666,23.5399994 217.46,23.66 C217.553334,23.7800006 217.6,23.906666 217.6,24.04 C217.6,24.173334 217.533334,24.2999994 217.4,24.42 C217.266666,24.5400006 217.066668,24.5866668 216.8,24.56 C216.079996,24.5066664 215.453336,24.48 214.92,24.48 L213.52,24.48 C213.146665,25.3333376 212.726669,26.326661 212.26,27.46 C211.793331,28.593339 211.326669,29.7399942 210.86,30.9 C210.393331,32.0600058 209.940002,33.1799946 209.5,34.26 C209.059998,35.3400054 208.693335,36.279996 208.4,37.08 C208.159999,37.7200032 208.126666,38.2199982 208.3,38.58 C208.473334,38.9400018 208.826664,39.12 209.36,39.12 C210.240004,39.12 210.999997,38.8133364 211.64,38.2 C212.280003,37.5866636 212.906664,36.880004 213.52,36.08 C213.626667,35.946666 213.733333,35.88 213.84,35.88 C213.973334,35.88 214.086666,35.9333328 214.18,36.04 C214.273334,36.1466672 214.333333,36.2733326 214.36,36.42 C214.386667,36.5666674 214.346667,36.7199992 214.24,36.88 C213.679997,37.680004 213.140003,38.313331 212.62,38.78 C212.099997,39.246669 211.586669,39.5999988 211.08,39.84 C210.573331,40.0800012 210.086669,40.2399996 209.62,40.32 C209.153331,40.4000004 208.706669,40.44 208.28,40.44 C207.586663,40.44 207.006669,40.3133346 206.54,40.06 C206.073331,39.8066654 205.726668,39.4666688 205.5,39.04 C205.273332,38.6133312 205.16,38.1200028 205.16,37.56 C205.16,36.9733304 205.279999,36.3733364 205.52,35.76 C205.786668,35.0399964 206.106665,34.213338 206.48,33.28 C206.853335,32.346662 207.246665,31.3666718 207.66,30.34 C208.073335,29.3133282 208.479998,28.300005 208.88,27.3 C209.280002,26.299995 209.666665,25.3733376 210.04,24.52 C209.799999,24.4933332 209.573334,24.4866666 209.36,24.5 C209.146666,24.5133334 208.893335,24.52 208.6,24.52 C208.359999,24.52 208.193334,24.4600006 208.1,24.34 C208.006666,24.2199994 207.98,24.0866674 208.02,23.94 C208.06,23.7933326 208.159999,23.6733338 208.32,23.58 C208.480001,23.4866662 208.679999,23.4533332 208.92,23.48 C209.213335,23.5066668 209.453332,23.52 209.64,23.52 C209.826668,23.52 210.106665,23.5066668 210.48,23.48 C210.746668,22.8399968 210.953333,22.320002 211.1,21.92 C211.246667,21.519998 211.399999,21.1066688 211.56,20.68 C211.693334,20.279998 211.946665,20.08 212.32,20.08 L213.52,20.08 C214.10667,20.08 214.546665,20.0733334 214.84,20.06 C215.133335,20.0466666 215.213334,20.1866652 215.08,20.48 C214.893332,20.9333356 214.693334,21.426664 214.48,21.96 C214.266666,22.493336 214.080001,23.0133308 213.92,23.52 C214.533336,23.5466668 215.066664,23.5533334 215.52,23.54 C215.973336,23.5266666 216.479997,23.5066668 217.04,23.48 Z M236.48,36.36 C235.73333,37.6400064 234.900005,38.646663 233.98,39.38 C233.059995,40.113337 231.986673,40.48 230.76,40.48 C230.066663,40.48 229.520002,40.3266682 229.12,40.02 C228.719998,39.7133318 228.426668,39.3533354 228.24,38.94 C228.053332,38.5266646 227.96,38.0933356 227.96,37.64 C227.96,37.1866644 228,36.8133348 228.08,36.52 C227.866666,36.920002 227.580002,37.3466644 227.22,37.8 C226.859998,38.2533356 226.426669,38.6733314 225.92,39.06 C225.413331,39.4466686 224.84667,39.773332 224.22,40.04 C223.59333,40.306668 222.893337,40.44 222.12,40.44 C221.133328,40.44 220.26667,40.1933358 219.52,39.7 C218.77333,39.2066642 218.193335,38.560004 217.78,37.76 C217.366665,36.959996 217.14,36.0333386 217.1,34.98 C217.06,33.9266614 217.266664,32.8400056 217.72,31.72 C218.413337,29.9333244 219.239995,28.4800056 220.2,27.36 C221.160005,26.2399944 222.146662,25.3666698 223.16,24.74 C224.173338,24.1133302 225.159995,23.6866678 226.12,23.46 C227.080005,23.2333322 227.906663,23.12 228.6,23.12 C229.560005,23.12 230.293331,23.3466644 230.8,23.8 C231.306669,24.2533356 231.56,24.746664 231.56,25.28 C231.56,25.680002 231.466668,26.0199986 231.28,26.3 C231.093332,26.5800014 230.813335,26.72 230.44,26.72 C230.146665,26.72 229.886668,26.6333342 229.66,26.46 C229.433332,26.2866658 229.32,26.0533348 229.32,25.76 C229.32,25.5999992 229.36,25.4733338 229.44,25.38 C229.52,25.2866662 229.606666,25.2000004 229.7,25.12 C229.793334,25.0399996 229.873333,24.9600004 229.94,24.88 C230.006667,24.7999996 230.026667,24.7066672 230,24.6 C229.946666,24.3599988 229.773335,24.1933338 229.48,24.1 C229.186665,24.0066662 228.866668,23.96 228.52,23.96 C227.906664,23.96 227.240004,24.1199984 226.52,24.44 C225.799996,24.7600016 225.080004,25.2799964 224.36,26 C223.639996,26.7200036 222.96667,27.6733274 222.34,28.86 C221.71333,30.0466726 221.200002,31.4933248 220.8,33.2 C220.613332,34.0266708 220.533333,34.7999964 220.56,35.52 C220.586667,36.2400036 220.706666,36.866664 220.92,37.4 C221.133334,37.933336 221.426665,38.3533318 221.8,38.66 C222.173335,38.9666682 222.626664,39.12 223.16,39.12 C223.800003,39.12 224.43333,38.8933356 225.06,38.44 C225.68667,37.9866644 226.29333,37.3866704 226.88,36.64 C227.46667,35.8933296 228.033331,35.0133384 228.58,34 C229.126669,32.9866616 229.653331,31.9333388 230.16,30.84 C230.666669,29.7466612 231.153331,28.6266724 231.62,27.48 C232.086669,26.3333276 232.533331,25.2400052 232.96,24.2 C233.120001,23.799998 233.346665,23.6133332 233.64,23.64 C233.933335,23.6666668 234.333331,23.68 234.84,23.68 C235.026668,23.68 235.226666,23.6733334 235.44,23.66 C235.653334,23.6466666 235.846666,23.6466666 236.02,23.66 C236.193334,23.6733334 236.32,23.7266662 236.4,23.82 C236.48,23.9133338 236.48,24.0533324 236.4,24.24 C235.919998,25.306672 235.406669,26.4199942 234.86,27.58 C234.313331,28.7400058 233.800002,29.8399948 233.32,30.88 C232.839998,31.9200052 232.420002,32.8466626 232.06,33.66 C231.699998,34.4733374 231.440001,35.0533316 231.28,35.4 C231.119999,35.800002 230.980001,36.199998 230.86,36.6 C230.739999,37.000002 230.68,37.3733316 230.68,37.72 C230.68,38.0666684 230.759999,38.3466656 230.92,38.56 C231.080001,38.7733344 231.346665,38.88 231.72,38.88 C232.440004,38.88 233.13333,38.6000028 233.8,38.04 C234.46667,37.4799972 235.09333,36.7066716 235.68,35.72 C235.786667,35.5066656 235.913333,35.3866668 236.06,35.36 C236.206667,35.3333332 236.326666,35.3599996 236.42,35.44 C236.513334,35.5200004 236.573333,35.6466658 236.6,35.82 C236.626667,35.9933342 236.586667,36.1733324 236.48,36.36 Z"/>
    <path fill="#076F7E" fill-rule="nonzero" d="M39.6146535,19.060198 C39.2059406,19.1069307 39.4150495,18.4277228 38.950099,18.5924752 C38.950099,18.5924752 37.8241584,18.2190099 37.4673267,17.7984158 C37.109703,17.3774257 34.6538614,15.4150495 31.3825743,15.1346535 C28.110099,14.8542574 26.3714851,14.8542574 26.3714851,14.8542574 L26.6273267,13.7794059 L26.1160396,13.4059406 C26.1160396,13.4059406 25.7576238,9.76118812 22.8942574,7.75207921 C20.030495,5.7429703 17.779802,4.52792079 17.779802,4.52792079 L18.4443564,5.32237624 L15.989703,4.24792079 L16.8079208,4.94891089 C16.8079208,4.94891089 15.4784158,4.29544554 14.4558416,4.24792079 C13.4328713,4.20079208 11.7968317,4.24792079 11.7968317,4.24792079 L13.6376238,4.7619802 C13.6376238,4.7619802 10.7738614,4.06613861 8.83089109,4.22653465 C6.88792079,4.38732673 5.96752475,4.7619802 5.96752475,4.7619802 C5.96752475,4.7619802 8.72871287,4.66851485 9.80277228,4.94891089 C10.8768317,5.22930693 11.8994059,5.83683168 12.5128713,6.1639604 C13.1263366,6.49108911 14.8142574,8.21980198 13.0752475,7.56594059 C11.3362376,6.91168317 7.24554455,5.36990099 7.24554455,5.36990099 L9.75128713,6.86455446 C9.75128713,6.86455446 12.8194059,8.21980198 13.739802,8.96792079 C14.660198,9.71564356 15.9386139,11.1176238 15.3247525,11.8645545 C14.7112871,12.6122772 14.1489109,12.8930693 13.0748515,12.4720792 C12.0007921,12.0514851 11.2847525,12.0986139 11.2847525,12.0986139 C11.2847525,12.0986139 13.0233663,12.5663366 14.0974257,13.1267327 C15.1710891,13.6875248 15.3247525,13.8273267 15.7849505,14.4348515 C16.2451485,15.0423762 16.1940594,15.4629703 16.1940594,15.4629703 C16.1940594,15.4629703 14.2506931,13.360396 11.7453465,12.7528713 C9.24,12.1453465 7.19405941,12.0990099 5.25108911,13.4542574 C3.30811881,14.809505 3.05227723,14.8562376 3.05227723,14.8562376 L4.22851485,14.6229703 C4.22851485,14.6229703 3.15485149,15.5568317 2.43881188,16.4918812 C1.72277228,17.4261386 1.2629703,18.0340594 1.2629703,18.0340594 C1.2629703,18.0340594 2.69465347,16.819802 1.9790099,17.9409901 C1.26336634,19.0617822 1.26336634,19.0617822 1.26336634,19.0617822 C1.26336634,19.0617822 -0.0661386139,20.9310891 2.28633663,19.0617822 C4.63841584,17.1920792 5.09821782,16.6312871 5.76316832,16.3512871 C6.42811881,16.0708911 6.99049505,16.2110891 6.99049505,16.2110891 C6.99049505,16.2110891 5.86534653,16.5382178 5.50732673,17.1453465 C5.14930693,17.7528713 2.69465347,19.6689109 2.08118812,22.0522772 C1.46772277,24.4356436 1.6209901,24.5287129 1.26336634,25.5572277 C0.905346535,26.5853465 0.547326733,27.1453465 0.547326733,27.1453465 C0.547326733,27.1453465 1.72356436,25.8831683 1.72356436,27.1453465 C1.72356436,28.4079208 0.956435644,29.2011881 0.956435644,29.2011881 C0.956435644,29.2011881 2.13227723,28.4538614 1.72356436,29.7164356 C1.31445545,30.9782178 1.87722772,29.5762376 1.92831683,30.5564356 C1.97940594,31.5382178 1.51920792,31.7714851 1.51920792,31.7714851 L1.11089109,32.0990099 L1.92910891,32.0990099 C1.92910891,32.0990099 1.41782178,32.9857426 0.957623762,33.2665347 C0.497425743,33.5465347 0.497425743,33.5465347 0.497425743,33.5465347 L1.21346535,33.5465347 L0.19049505,34.6209901 C0.19049505,34.6209901 0.497425743,34.9489109 0.497425743,35.2289109 C0.497425743,35.5089109 0.395247525,35.8352475 0.395247525,35.8352475 C0.395247525,35.8352475 0.702178218,35.3683168 0.855445545,35.8352475 C1.00871287,36.3033663 0.957623762,36.9112871 0.957623762,37.0506931 C0.957623762,37.190099 1.21346535,36.9572277 1.72475248,36.7235644 C2.2360396,36.4891089 2.59445545,36.1631683 2.38970297,36.7235644 C2.1849505,37.2839604 3.31009901,35.5089109 2.95207921,36.8637624 C2.59405941,38.2190099 5.86653465,33.4067327 4.63960396,36.1623762 C3.41227723,38.919604 6.17346535,34.760396 6.17346535,34.760396 C6.17346535,34.760396 3.56594059,38.6851485 6.42930693,35.6942574 C9.29267327,32.7029703 9.8039604,31.7235644 11.3893069,29.6661386 C12.9746535,27.6106931 15.8891089,23.3572277 15.8891089,23.3572277 L17.0653465,21.6285149 L17.4233663,21.6285149 L15.6336634,24.4792079 L17.270099,22.6562376 C17.270099,22.6562376 16.0423762,24.9457426 15.5310891,26.2546535 C15.019802,27.5631683 14.3041584,29.8530693 12.5144554,31.7223762 C10.7247525,33.5916832 10.7247525,33.5916832 10.7247525,33.5916832 C10.7247525,33.5916832 13.3837624,31.8174257 14.2530693,29.9932673 C15.1223762,28.1706931 15.5314851,28.1706931 15.1734653,29.2459406 C14.8154455,30.320396 13.9972277,32.0954455 13.3326733,32.750099 C12.6681188,33.4047525 15.9916832,30.1805941 14.9691089,32.6574257 C13.9461386,35.1350495 13.7417822,35.8340594 12.4122772,35.929505 C11.0831683,36.0213861 10.520396,35.4150495 9.75326733,35.6027723 C8.98613861,35.790495 8.57742574,35.929505 8.57742574,35.929505 C8.57742574,35.929505 9.34415842,35.8368317 9.90653465,36.069703 C10.4693069,36.3033663 10.9805941,36.8649505 11.4918812,36.8649505 C12.0031683,36.8649505 11.0827723,37.0522772 10.2130693,37.4257426 C9.34376238,37.7984158 8.62772277,37.9857426 7.75881188,37.8934653 C6.88950495,37.8011881 8.98613861,38.7342574 10.7247525,38.4542574 C12.4633663,38.1734653 12.6170297,37.8934653 13.5374257,37.8011881 C14.4578218,37.7077228 14.7647525,37.7540594 14.7647525,37.7540594 C14.7647525,37.7540594 13.5885149,38.4673267 13.230495,38.5069307 C12.8724752,38.5481188 12.6681188,39.2023762 15.3267327,38.080396 C17.9857426,36.960396 19.8261386,36.4451485 17.9857426,37.4740594 C16.1449505,38.5025743 22.5378218,35.7916832 20.0823762,37.3817822 C18.5940594,38.3453465 17.8792079,38.6356436 17.5449505,38.7176238 C18.1520792,38.670495 19.6019802,38.5112871 20.0823762,38.0348515 C20.6958416,37.4277228 21.1556436,37.3334653 21.3611881,37.3817822 C21.5667327,37.4289109 21.5156436,37.8491089 22.1287129,37.5219802 C22.7421782,37.1956436 24.1231683,36.3540594 23.1516832,37.1485149 C22.180198,37.9429703 21.6693069,38.6906931 20.9528713,39.1572277 C20.2360396,39.6253465 22.0261386,38.8308911 22.7421782,38.1754455 C23.459802,37.5223762 25.2479208,36.1679208 24.4823762,37.6150495 C23.7148515,39.0637624 23.0510891,39.2966337 23.0510891,39.2966337 C23.0510891,39.2966337 24.4312871,38.8285149 24.8407921,38.0340594 C25.250297,37.239604 26.3235644,36.539802 25.7611881,37.4269307 C25.1988119,38.3140594 24.4324752,39.2966337 24.1251485,39.5306931 C23.8182178,39.7643564 25.5057426,38.9239604 26.0170297,37.9877228 C26.5275248,37.0546535 27.4990099,35.7908911 26.9877228,37.0059406 C26.4764356,38.220198 25.810297,38.9675248 25.5049505,39.3417822 C25.1988119,39.7140594 26.9366337,38.2665347 27.7552475,37.0526733 C28.5734653,35.8372277 30.2605941,31.1639604 30.3635644,28.0340594 C30.4657426,24.9041584 30.3635644,24.7164356 30.669703,24.4823762 C30.9750495,24.2487129 31.3861386,24.2491089 31.2839604,24.0150495 C31.1809901,23.7813861 30.9778218,23.5005941 31.539802,23.8273267 C32.1013861,24.1544554 31.9988119,23.9675248 32.4590099,23.920396 C32.7077228,23.8954455 32.9881188,23.990495 33.3057426,24.0277228 C33.2514851,24.1576238 33.1536634,24.2661386 32.9639604,24.290297 C32.3813861,24.3615842 32.0657426,25.9572277 32.0657426,25.9572277 C32.0657426,25.9572277 31.2819802,27.5576238 30.9683168,28.0427723 C30.6542574,28.5271287 30.9271287,28.6934653 31.1350495,28.8269307 C31.3433663,28.9635644 31.2043564,29.6411881 30.9251485,29.9184158 C30.6459406,30.1960396 30.9180198,30.3607921 31.1025743,31.0443564 C31.2867327,31.7267327 31.169901,33.0835644 30.7738614,34.4114851 C30.3782178,35.739802 30.4752475,37.110495 30.4752475,37.110495 C30.4752475,37.110495 31.0091089,36.3184158 31.4534653,34.6677228 C31.8986139,33.0186139 32.3259406,33.629703 33.1421782,34.2756436 C33.9588119,34.9219802 33.4526733,37.3231683 33.3485149,40.100198 C33.2411881,42.8784158 32.3734653,44.2332673 33.0376238,43.6728713 C33.7017822,43.1136634 33.7706931,41.1556436 33.7706931,41.1556436 C33.7706931,41.1556436 33.9556436,35.2178218 33.970297,33.1041584 C33.9849505,30.9916832 34.3405941,32.1627723 34.8194059,33.690297 C35.2982178,35.2174257 35.469703,37.8649505 35.469703,37.8649505 C35.469703,37.8649505 35.7017822,36.3754455 35.6530693,35.3116832 C35.6043564,34.2471287 35.0427723,32.7928713 34.9738614,31.9778218 C34.9045545,31.1639604 35.6918812,32.6510891 36.0922772,34.3005941 C36.4930693,35.9493069 36.2994059,36.3980198 36.0942574,38.2720792 C35.8879208,40.1449505 36.4685149,43.0407921 36.4685149,43.0407921 C36.4685149,43.0407921 36.4055446,41.3184158 36.9710891,38.0158416 C37.5358416,34.7124752 36.3382178,29.2752475 36.049901,26.9065347 C35.8633663,25.3790099 35.0859406,24.270495 34.5572277,23.6732673 C35.0320792,23.390099 35.2748515,23.170297 35.2748515,23.170297 C35.2748515,23.170297 35.9924752,23.3124752 37.32,22.5651485 C38.6491089,21.8174257 38.5485149,21.3968317 38.9560396,21.0225743 C39.3659406,20.6491089 39.5714851,20.7889109 39.6225743,20.4154455 C39.6665347,20.0411881 40.0249505,19.0134653 39.6146535,19.060198 Z M35.8308911,20.8356436 C35.2661386,20.8356436 34.8083168,20.3964356 34.8083168,19.8542574 C34.8083168,19.3120792 35.2661386,18.8724752 35.8308911,18.8724752 C35.8720792,18.8724752 35.9081188,18.8792079 35.9461386,18.8835644 C35.5631683,18.9374257 35.2693069,19.2506931 35.2693069,19.6328713 C35.2693069,20.0534653 35.6241584,20.3932673 36.0613861,20.3932673 C36.459802,20.3932673 36.7861386,20.110495 36.8427723,19.7433663 C36.8483168,19.780198 36.8542574,19.8158416 36.8542574,19.8538614 C36.8542574,20.3964356 36.3960396,20.8356436 35.8308911,20.8356436 Z"/>
  </g>
</svg>
