<svg xmlns="http://www.w3.org/2000/svg" width="237" height="40"><g fill="none" fill-rule="evenodd"><path fill="#FFF" d="M93.68 27.04c0 1.12-.227 2.253-.68 3.4a9.513 9.513 0 0 1-2 3.1c-.88.92-1.973 1.667-3.28 2.24-1.307.573-2.84.86-4.6.86-1.28 0-2.353-.14-3.22-.42-.867-.28-1.56-.64-2.08-1.08-.52-.44-.887-.947-1.1-1.52a4.85 4.85 0 0 1-.32-1.7c0-.8.207-1.487.62-2.06.413-.573.927-.833 1.54-.78.533.027.947.16 1.24.4.293.24.48.52.56.84.08.32.073.633-.02.94-.093.307-.253.54-.48.7-.227.16-.507.213-.84.16-.333-.053-.7-.293-1.1-.72-.133-.107-.247-.107-.34 0-.093.107-.14.28-.14.52 0 1.2.493 2.113 1.48 2.74.987.627 2.347.94 4.08.94.88 0 1.687-.18 2.42-.54a5.55 5.55 0 0 0 1.92-1.58c.547-.693.967-1.533 1.26-2.52.293-.987.44-2.107.44-3.36 0-1.067-.193-1.98-.58-2.74a5.894 5.894 0 0 0-1.5-1.9 6.802 6.802 0 0 0-2.02-1.16 13.651 13.651 0 0 0-2.18-.6c-.56-.107-1-.307-1.32-.6-.32-.293-.513-.62-.58-.98a1.8 1.8 0 0 1 .14-1.08c.16-.36.44-.647.84-.86a2 2 0 0 1 .48-.2c.187-.053.373-.147.56-.28a4.561 4.561 0 0 0 1.46-1.52c.387-.64.66-1.327.82-2.06.16-.733.2-1.493.12-2.28a6.435 6.435 0 0 0-.62-2.2c-.333-.68-.8-1.28-1.4-1.8-.6-.52-1.34-.887-2.22-1.1-.693 0-1.34.287-1.94.86-.6.573-1.173 1.327-1.72 2.26a24.945 24.945 0 0 0-1.54 3.16 81.595 81.595 0 0 0-1.36 3.56l-1.24 3.48c-.4 1.12-.787 2.067-1.16 2.84 1.173 1.387 2 2.713 2.48 3.98s.687 2.407.62 3.42c-.067 1.013-.367 1.887-.9 2.62A4.477 4.477 0 0 1 72.24 34c-.827.32-1.753.413-2.78.28-1.027-.133-2.073-.56-3.14-1.28-.133.16-.347.413-.64.76a9.8 9.8 0 0 1-1.12 1.1c-.453.387-.967.74-1.54 1.06a5 5 0 0 1-1.86.6c-.933.133-1.707.047-2.32-.26-.613-.307-1.08-.72-1.4-1.24-.32-.52-.48-1.1-.48-1.74 0-.64.153-1.26.46-1.86.307-.6.773-1.113 1.4-1.54.627-.427 1.42-.693 2.38-.8.827-.08 1.747-.02 2.76.18 1.013.2 2.013.567 3 1.1.4-.533.787-1.14 1.16-1.82.373-.68.72-1.373 1.04-2.08.32-.707.613-1.373.88-2s.493-1.153.68-1.58a44.48 44.48 0 0 0-.78-.74c-.413-.387-.853-.913-1.32-1.58-.467-.667-.887-1.473-1.26-2.42-.373-.947-.56-2.06-.56-3.34 0-1.467.253-2.807.76-4.02a8.518 8.518 0 0 1 2.22-3.12c.973-.867 2.167-1.54 3.58-2.02 1.413-.48 3-.72 4.76-.72 1.867 0 3.5.193 4.9.58 1.4.387 2.56.9 3.48 1.54.92.64 1.613 1.373 2.08 2.2.467.827.7 1.68.7 2.56 0 .693-.133 1.373-.4 2.04a6.237 6.237 0 0 1-1.2 1.88c-.533.587-1.193 1.113-1.98 1.58-.787.467-1.713.833-2.78 1.1-.027 0-.1.027-.22.08-.12.053-.247.12-.38.2-.133.08-.247.193-.34.34-.093.147-.1.313-.02.5.133.373.56.527 1.28.46s1.613-.1 2.68-.1c1.307 0 2.447.2 3.42.6.973.4 1.78.927 2.42 1.58a6.377 6.377 0 0 1 1.44 2.28c.32.867.48 1.767.48 2.7zM79.44 5.92c-1.253-.16-2.42 0-3.5.48a8.932 8.932 0 0 0-2.86 2.02c-.827.867-1.5 1.88-2.02 3.04A13.82 13.82 0 0 0 70 15c-.187 1.2-.18 2.367.02 3.5.2 1.133.633 2.113 1.3 2.94.293-.613.627-1.42 1-2.42s.767-2.073 1.18-3.22a90.89 90.89 0 0 1 1.32-3.44 36.934 36.934 0 0 1 1.44-3.14c.493-.947 1.007-1.72 1.54-2.32.533-.6 1.08-.927 1.64-.98zm-7.88 17.72c-.24.507-.5 1.073-.78 1.7s-.573 1.267-.88 1.92a32.447 32.447 0 0 1-.98 1.92 12.82 12.82 0 0 1-1.08 1.66c1.173.56 2.227.727 3.16.5.933-.227 1.62-.713 2.06-1.46.44-.747.567-1.673.38-2.78-.187-1.107-.813-2.26-1.88-3.46zm-6.16 8.88c-.427-.267-1-.507-1.72-.72a7.44 7.44 0 0 0-2.12-.32c-.667 0-1.253.147-1.76.44-.507.293-.76.827-.76 1.6 0 .373.147.753.44 1.14.293.387.713.62 1.26.7.547.08 1.213-.08 2-.48.787-.4 1.673-1.187 2.66-2.36zm42.44-13.04c.187 0 .327.06.42.18a.61.61 0 0 1 .14.38c0 .133-.067.26-.2.38s-.333.167-.6.14c-.72-.053-1.347-.08-1.88-.08h-1.4a150.5 150.5 0 0 0-1.26 2.98 457.39 457.39 0 0 0-1.4 3.44c-.467 1.16-.92 2.28-1.36 3.36a87.02 87.02 0 0 0-1.1 2.82c-.24.64-.273 1.14-.1 1.5.173.36.527.54 1.06.54.88 0 1.64-.307 2.28-.92.64-.613 1.267-1.32 1.88-2.12.107-.133.213-.2.32-.2.133 0 .247.053.34.16a.776.776 0 0 1 .18.38c.027.147-.013.3-.12.46-.56.8-1.1 1.433-1.62 1.9-.52.467-1.033.82-1.54 1.06-.507.24-.993.4-1.46.48-.467.08-.913.12-1.34.12-.693 0-1.273-.127-1.74-.38a2.473 2.473 0 0 1-1.04-1.02c-.227-.427-.34-.92-.34-1.48 0-.587.12-1.187.36-1.8.267-.72.587-1.547.96-2.48s.767-1.913 1.18-2.94c.413-1.027.82-2.04 1.22-3.04s.787-1.927 1.16-2.78a3.94 3.94 0 0 0-.68-.02c-.213.013-.467.02-.76.02-.24 0-.407-.06-.5-.18a.433.433 0 0 1-.08-.4.601.601 0 0 1 .3-.36c.16-.093.36-.127.6-.1.293.027.533.04.72.04.187 0 .467-.013.84-.04.267-.64.473-1.16.62-1.56.147-.4.3-.813.46-1.24.133-.4.387-.6.76-.6h1.2c.587 0 1.027-.007 1.32-.02.293-.013.373.127.24.42-.187.453-.387.947-.6 1.48a22.28 22.28 0 0 0-.56 1.56c.613.027 1.147.033 1.6.02.453-.013.96-.033 1.52-.06zm12.44 0c.187 0 .327.06.42.18a.61.61 0 0 1 .14.38c0 .133-.067.26-.2.38s-.333.167-.6.14c-.72-.053-1.347-.08-1.88-.08h-1.4a150.5 150.5 0 0 0-1.26 2.98 457.39 457.39 0 0 0-1.4 3.44c-.467 1.16-.92 2.28-1.36 3.36-.44 1.08-.807 2.02-1.1 2.82-.24.64-.273 1.14-.1 1.5.173.36.527.54 1.06.54.88 0 1.64-.307 2.28-.92.64-.613 1.267-1.32 1.88-2.12.107-.133.213-.2.32-.2.133 0 .247.053.34.16a.776.776 0 0 1 .18.38c.027.147-.013.3-.12.46-.56.8-1.1 1.433-1.62 1.9-.52.467-1.033.82-1.54 1.06-.507.24-.993.4-1.46.48-.467.08-.913.12-1.34.12-.693 0-1.273-.127-1.74-.38a2.473 2.473 0 0 1-1.04-1.02c-.227-.427-.34-.92-.34-1.48 0-.587.12-1.187.36-1.8.267-.72.587-1.547.96-2.48s.767-1.913 1.18-2.94c.413-1.027.82-2.04 1.22-3.04s.787-1.927 1.16-2.78a3.94 3.94 0 0 0-.68-.02c-.213.013-.467.02-.76.02-.24 0-.407-.06-.5-.18a.433.433 0 0 1-.08-.4.601.601 0 0 1 .3-.36c.16-.093.36-.127.6-.1.293.027.533.04.72.04.187 0 .467-.013.84-.04.267-.64.473-1.16.62-1.56.147-.4.3-.813.46-1.24.133-.4.387-.6.76-.6h1.2c.587 0 1.027-.007 1.32-.02.293-.013.373.127.24.42-.187.453-.387.947-.6 1.48a22.28 22.28 0 0 0-.56 1.56c.613.027 1.147.033 1.6.02.453-.013.96-.033 1.52-.06zm16.76 1.68c-.133.613-.38 1.113-.74 1.5s-.887.58-1.58.58c-.613 0-1.013-.22-1.2-.66-.187-.44-.173-.833.04-1.18.133-.24.22-.467.26-.68.04-.213-.047-.307-.26-.28-.853.107-1.767.6-2.74 1.48-.973.88-1.947 2.007-2.92 3.38-.973 1.373-1.907 2.947-2.8 4.72a50.192 50.192 0 0 0-2.38 5.54c-.133.373-.373.54-.72.5a10.6 10.6 0 0 0-1.2-.06c-.24 0-.487.013-.74.04a3.813 3.813 0 0 1-.66.02c-.187-.013-.313-.053-.38-.12s-.06-.193.02-.38a1052.21 1052.21 0 0 0 2.34-4.86 287.12 287.12 0 0 0 1.98-4.22 66.762 66.762 0 0 0 1.46-3.4c.387-.987.647-1.8.78-2.44-.267.027-.62.013-1.06-.04a37.7 37.7 0 0 1-1.18-.16c-.24-.027-.407-.1-.5-.22a.453.453 0 0 1-.1-.38c.027-.133.113-.24.26-.32a.88.88 0 0 1 .54-.08c.293.053.8.12 1.52.2.72.08 1.427.093 2.12.04a5.89 5.89 0 0 0 .82-.18c.333-.093.647-.18.94-.26a.878.878 0 0 1 .56.02c.16.067.187.207.08.42-.213.4-.567 1.073-1.06 2.02a31.325 31.325 0 0 0-1.42 3.18c1.2-1.68 2.46-3.08 3.78-4.2 1.32-1.12 2.607-1.68 3.86-1.68.453 0 .833.067 1.14.2.307.133.553.307.74.52.187.213.307.447.36.7.053.253.067.5.04.74zm35 5.88c0 1.12-.227 2.253-.68 3.4a9.513 9.513 0 0 1-2 3.1c-.88.92-1.973 1.667-3.28 2.24-1.307.573-2.84.86-4.6.86-1.28 0-2.353-.14-3.22-.42-.867-.28-1.56-.64-2.08-1.08-.52-.44-.887-.947-1.1-1.52a4.85 4.85 0 0 1-.32-1.7c0-.8.207-1.487.62-2.06.413-.573.927-.833 1.54-.78.533.027.947.16 1.24.4.293.24.48.52.56.84.08.32.073.633-.02.94-.093.307-.253.54-.48.7-.227.16-.507.213-.84.16-.333-.053-.7-.293-1.1-.72-.133-.107-.247-.107-.34 0-.093.107-.14.28-.14.52 0 1.2.493 2.113 1.48 2.74.987.627 2.347.94 4.08.94.88 0 1.687-.18 2.42-.54a5.55 5.55 0 0 0 1.92-1.58c.547-.693.967-1.533 1.26-2.52.293-.987.44-2.107.44-3.36 0-1.067-.193-1.98-.58-2.74a5.894 5.894 0 0 0-1.5-1.9 6.802 6.802 0 0 0-2.02-1.16 13.651 13.651 0 0 0-2.18-.6c-.56-.107-1-.307-1.32-.6-.32-.293-.513-.62-.58-.98a1.8 1.8 0 0 1 .14-1.08c.16-.36.44-.647.84-.86a2 2 0 0 1 .48-.2c.187-.053.373-.147.56-.28a4.561 4.561 0 0 0 1.46-1.52c.387-.64.66-1.327.82-2.06.16-.733.2-1.493.12-2.28a6.435 6.435 0 0 0-.62-2.2c-.333-.68-.8-1.28-1.4-1.8-.6-.52-1.34-.887-2.22-1.1-.693 0-1.34.287-1.94.86-.6.573-1.173 1.327-1.72 2.26a24.945 24.945 0 0 0-1.54 3.16 81.596 81.596 0 0 0-1.36 3.56l-1.24 3.48c-.4 1.12-.787 2.067-1.16 2.84 1.173 1.387 2 2.713 2.48 3.98s.687 2.407.62 3.42c-.067 1.013-.367 1.887-.9 2.62A4.477 4.477 0 0 1 150.6 34c-.827.32-1.753.413-2.78.28-1.027-.133-2.073-.56-3.14-1.28-.133.16-.347.413-.64.76a9.8 9.8 0 0 1-1.12 1.1c-.453.387-.967.74-1.54 1.06a5 5 0 0 1-1.86.6c-.933.133-1.707.047-2.32-.26-.613-.307-1.08-.72-1.4-1.24-.32-.52-.48-1.1-.48-1.74 0-.64.153-1.26.46-1.86.307-.6.773-1.113 1.4-1.54.627-.427 1.42-.693 2.38-.8.827-.08 1.747-.02 2.76.18 1.013.2 2.013.567 3 1.1.4-.533.787-1.14 1.16-1.82.373-.68.72-1.373 1.04-2.08.32-.707.613-1.373.88-2s.493-1.153.68-1.58a44.48 44.48 0 0 0-.78-.74c-.413-.387-.853-.913-1.32-1.58-.467-.667-.887-1.473-1.26-2.42-.373-.947-.56-2.06-.56-3.34 0-1.467.253-2.807.76-4.02a8.518 8.518 0 0 1 2.22-3.12c.973-.867 2.167-1.54 3.58-2.02 1.413-.48 3-.72 4.76-.72 1.867 0 3.5.193 4.9.58 1.4.387 2.56.9 3.48 1.54.92.64 1.613 1.373 2.08 2.2.467.827.7 1.68.7 2.56 0 .693-.133 1.373-.4 2.04a6.237 6.237 0 0 1-1.2 1.88c-.533.587-1.193 1.113-1.98 1.58-.787.467-1.713.833-2.78 1.1-.027 0-.1.027-.22.08-.12.053-.247.12-.38.2-.133.08-.247.193-.34.34-.093.147-.1.313-.02.5.133.373.56.527 1.28.46s1.613-.1 2.68-.1c1.307 0 2.447.2 3.42.6.973.4 1.78.927 2.42 1.58a6.377 6.377 0 0 1 1.44 2.28c.32.867.48 1.767.48 2.7zM157.8 5.92c-1.253-.16-2.42 0-3.5.48a8.932 8.932 0 0 0-2.86 2.02c-.827.867-1.5 1.88-2.02 3.04a13.82 13.82 0 0 0-1.06 3.54c-.187 1.2-.18 2.367.02 3.5.2 1.133.633 2.113 1.3 2.94.293-.613.627-1.42 1-2.42s.767-2.073 1.18-3.22a90.89 90.89 0 0 1 1.32-3.44 36.934 36.934 0 0 1 1.44-3.14c.493-.947 1.007-1.72 1.54-2.32.533-.6 1.08-.927 1.64-.98zm-7.88 17.72c-.24.507-.5 1.073-.78 1.7s-.573 1.267-.88 1.92a32.447 32.447 0 0 1-.98 1.92 12.82 12.82 0 0 1-1.08 1.66c1.173.56 2.227.727 3.16.5.933-.227 1.62-.713 2.06-1.46.44-.747.567-1.673.38-2.78-.187-1.107-.813-2.26-1.88-3.46zm-6.16 8.88c-.427-.267-1-.507-1.72-.72a7.44 7.44 0 0 0-2.12-.32c-.667 0-1.253.147-1.76.44-.507.293-.76.827-.76 1.6 0 .373.147.753.44 1.14.293.387.713.62 1.26.7.547.08 1.213-.08 2-.48.787-.4 1.673-1.187 2.66-2.36zm46.52-10.16c-.053.667-.427 1.367-1.12 2.1-.693.733-1.607 1.353-2.74 1.86-1.133.507-2.413.84-3.84 1-1.427.16-2.9.013-4.42-.44-.507 1.067-.813 2.087-.92 3.06-.107.973-.04 1.827.2 2.56.24.733.64 1.32 1.2 1.76.56.44 1.24.66 2.04.66.48 0 .927-.027 1.34-.08a4.362 4.362 0 0 0 1.24-.36 6.735 6.735 0 0 0 1.3-.8c.453-.347.96-.813 1.52-1.4.293-.293.56-.347.8-.16.24.187.24.44 0 .76-.773.933-1.787 1.767-3.04 2.5-1.253.733-2.693 1.1-4.32 1.1-1.28 0-2.313-.187-3.1-.56-.787-.373-1.387-.867-1.8-1.48-.413-.613-.66-1.32-.74-2.12-.08-.8-.047-1.62.1-2.46.147-.84.387-1.66.72-2.46.333-.8.713-1.533 1.14-2.2.507-.8 1.133-1.567 1.88-2.3a14.46 14.46 0 0 1 2.46-1.94 13.32 13.32 0 0 1 2.82-1.34c.987-.333 2-.5 3.04-.5.267 0 .647.033 1.14.1.493.067.98.207 1.46.42s.887.54 1.22.98c.333.44.473 1.02.42 1.74zm-3.72.84c.213-.267.373-.567.48-.9.107-.333.127-.647.06-.94a1.234 1.234 0 0 0-.46-.72c-.24-.187-.6-.28-1.08-.28-.48 0-1.013.107-1.6.32-.587.213-1.187.547-1.8 1-.613.453-1.227 1.04-1.84 1.76s-1.2 1.6-1.76 2.64c.507.187 1.1.287 1.78.3a7.078 7.078 0 0 0 2.12-.3 8.25 8.25 0 0 0 2.18-1.02c.72-.467 1.36-1.087 1.92-1.86zm18.04-3.72c.187 0 .327.06.42.18a.61.61 0 0 1 .14.38c0 .133-.067.26-.2.38s-.333.167-.6.14c-.72-.053-1.347-.08-1.88-.08h-1.4a150.5 150.5 0 0 0-1.26 2.98 457.39 457.39 0 0 0-1.4 3.44c-.467 1.16-.92 2.28-1.36 3.36-.44 1.08-.807 2.02-1.1 2.82-.24.64-.273 1.14-.1 1.5.173.36.527.54 1.06.54.88 0 1.64-.307 2.28-.92.64-.613 1.267-1.32 1.88-2.12.107-.133.213-.2.32-.2.133 0 .247.053.34.16a.776.776 0 0 1 .18.38c.027.147-.013.3-.12.46-.56.8-1.1 1.433-1.62 1.9-.52.467-1.033.82-1.54 1.06-.507.24-.993.4-1.46.48-.467.08-.913.12-1.34.12-.693 0-1.273-.127-1.74-.38a2.473 2.473 0 0 1-1.04-1.02c-.227-.427-.34-.92-.34-1.48 0-.587.12-1.187.36-1.8.267-.72.587-1.547.96-2.48s.767-1.913 1.18-2.94c.413-1.027.82-2.04 1.22-3.04s.787-1.927 1.16-2.78a3.94 3.94 0 0 0-.68-.02c-.213.013-.467.02-.76.02-.24 0-.407-.06-.5-.18a.433.433 0 0 1-.08-.4.601.601 0 0 1 .3-.36c.16-.093.36-.127.6-.1.293.027.533.04.72.04.187 0 .467-.013.84-.04.267-.64.473-1.16.62-1.56.147-.4.3-.813.46-1.24.133-.4.387-.6.76-.6h1.2c.587 0 1.027-.007 1.32-.02.293-.013.373.127.24.42-.187.453-.387.947-.6 1.48a22.28 22.28 0 0 0-.56 1.56c.613.027 1.147.033 1.6.02.453-.013.96-.033 1.52-.06zm12.44 0c.187 0 .327.06.42.18a.61.61 0 0 1 .14.38c0 .133-.067.26-.2.38s-.333.167-.6.14c-.72-.053-1.347-.08-1.88-.08h-1.4a150.5 150.5 0 0 0-1.26 2.98 457.39 457.39 0 0 0-1.4 3.44c-.467 1.16-.92 2.28-1.36 3.36-.44 1.08-.807 2.02-1.1 2.82-.24.64-.273 1.14-.1 1.5.173.36.527.54 1.06.54.88 0 1.64-.307 2.28-.92.64-.613 1.267-1.32 1.88-2.12.107-.133.213-.2.32-.2.133 0 .247.053.34.16a.776.776 0 0 1 .18.38c.027.147-.013.3-.12.46-.56.8-1.1 1.433-1.62 1.9-.52.467-1.033.82-1.54 1.06-.507.24-.993.4-1.46.48-.467.08-.913.12-1.34.12-.693 0-1.273-.127-1.74-.38a2.473 2.473 0 0 1-1.04-1.02c-.227-.427-.34-.92-.34-1.48 0-.587.12-1.187.36-1.8.267-.72.587-1.547.96-2.48s.767-1.913 1.18-2.94c.413-1.027.82-2.04 1.22-3.04s.787-1.927 1.16-2.78a3.94 3.94 0 0 0-.68-.02c-.213.013-.467.02-.76.02-.24 0-.407-.06-.5-.18a.433.433 0 0 1-.08-.4.601.601 0 0 1 .3-.36c.16-.093.36-.127.6-.1.293.027.533.04.72.04.187 0 .467-.013.84-.04.267-.64.473-1.16.62-1.56.147-.4.3-.813.46-1.24.133-.4.387-.6.76-.6h1.2c.587 0 1.027-.007 1.32-.02.293-.013.373.127.24.42-.187.453-.387.947-.6 1.48a22.28 22.28 0 0 0-.56 1.56c.613.027 1.147.033 1.6.02.453-.013.96-.033 1.52-.06zm19.44 12.88c-.747 1.28-1.58 2.287-2.5 3.02-.92.733-1.993 1.1-3.22 1.1-.693 0-1.24-.153-1.64-.46a2.82 2.82 0 0 1-.88-1.08 3.124 3.124 0 0 1-.28-1.3c0-.453.04-.827.12-1.12-.213.4-.5.827-.86 1.28a7.31 7.31 0 0 1-1.3 1.26 7.86 7.86 0 0 1-1.7.98c-.627.267-1.327.4-2.1.4-.987 0-1.853-.247-2.6-.74a5.083 5.083 0 0 1-1.74-1.94c-.413-.8-.64-1.727-.68-2.78-.04-1.053.167-2.14.62-3.26.693-1.787 1.52-3.24 2.48-4.36s1.947-1.993 2.96-2.62 2-1.053 2.96-1.28c.96-.227 1.787-.34 2.48-.34.96 0 1.693.227 2.2.68.507.453.76.947.76 1.48 0 .4-.093.74-.28 1.02-.187.28-.467.42-.84.42a1.25 1.25 0 0 1-.78-.26.836.836 0 0 1-.34-.7c0-.16.04-.287.12-.38.08-.093.167-.18.26-.26.093-.08.173-.16.24-.24a.3.3 0 0 0 .06-.28c-.053-.24-.227-.407-.52-.5a3.152 3.152 0 0 0-.96-.14c-.613 0-1.28.16-2 .48-.72.32-1.44.84-2.16 1.56-.72.72-1.393 1.673-2.02 2.86-.627 1.187-1.14 2.633-1.54 4.34a9.034 9.034 0 0 0-.24 2.32c.027.72.147 1.347.36 1.88.213.533.507.953.88 1.26.373.307.827.46 1.36.46.64 0 1.273-.227 1.9-.68.627-.453 1.233-1.053 1.82-1.8a18.453 18.453 0 0 0 1.7-2.64 58.153 58.153 0 0 0 1.58-3.16 77.22 77.22 0 0 0 1.46-3.36c.467-1.147.913-2.24 1.34-3.28.16-.4.387-.587.68-.56a13.99 13.99 0 0 0 1.8.02c.213-.013.407-.013.58 0s.3.067.38.16c.08.093.08.233 0 .42-.48 1.067-.993 2.18-1.54 3.34-.547 1.16-1.06 2.26-1.54 3.3s-.9 1.967-1.26 2.78c-.36.813-.62 1.393-.78 1.74-.16.4-.3.8-.42 1.2-.12.4-.18.773-.18 1.12 0 .347.08.627.24.84.16.213.427.32.8.32.72 0 1.413-.28 2.08-.84.667-.56 1.293-1.333 1.88-2.32.107-.213.233-.333.38-.36.147-.027.267 0 .36.08.093.08.153.207.18.38a.823.823 0 0 1-.12.54z"/><path fill="#076F7E" fill-rule="nonzero" d="M39.615 15.06c-.41.047-.2-.632-.665-.468 0 0-1.126-.373-1.483-.794-.357-.42-2.813-2.383-6.084-2.663-3.273-.28-5.012-.28-5.012-.28l.256-1.076-.511-.373s-.358-3.645-3.222-5.654S17.78.528 17.78.528l.664.794L15.99.248l.818.7s-1.33-.653-2.352-.7c-1.023-.047-2.66 0-2.66 0l1.842.514S10.774.066 8.83.227c-1.943.16-2.863.535-2.863.535s2.76-.093 3.835.187c1.074.28 2.096.888 2.71 1.215.613.327 2.301 2.056.562 1.402L7.245 1.37l2.506 1.495S12.82 4.22 13.74 4.968c.92.748 2.199 2.15 1.585 2.897-.614.747-1.176 1.028-2.25.607-1.074-.42-1.79-.373-1.79-.373s1.738.467 2.812 1.028c1.074.56 1.228.7 1.688 1.308.46.607.41 1.028.41 1.028s-1.944-2.103-4.45-2.71c-2.505-.608-4.55-.654-6.494.701-1.943 1.356-2.199 1.402-2.199 1.402l1.177-.233s-1.074.934-1.79 1.869c-.716.934-1.176 1.542-1.176 1.542s1.432-1.214.716-.093l-.716 1.12s-1.33 1.87 1.023 0c2.352-1.869 2.812-2.43 3.477-2.71.665-.28 1.227-.14 1.227-.14s-1.125.327-1.483.934c-.358.608-2.812 2.524-3.426 4.907-.613 2.384-.46 2.477-.818 3.505-.358 1.028-.716 1.588-.716 1.588s1.177-1.262 1.177 0a3.156 3.156 0 0 1-.768 2.056s1.176-.747.768.515c-.41 1.262.153-.14.204.84.051.982-.409 1.215-.409 1.215l-.408.328h.818s-.511.887-.971 1.168l-.46.28h.715L.19 30.62s.307.328.307.608c0 .28-.102.606-.102.606s.307-.467.46 0c.154.468.103 1.076.103 1.216 0 .14.255-.094.767-.327.511-.235.87-.56.665 0-.205.56.92-1.215.562.14s2.915-3.457 1.688-.702C3.412 34.92 6.173 30.76 6.173 30.76s-2.607 3.925.256.934c2.864-2.991 3.375-3.97 4.96-6.028 1.586-2.055 4.5-6.309 4.5-6.309l1.176-1.728h.358l-1.79 2.85 1.637-1.823s-1.228 2.29-1.739 3.599c-.511 1.308-1.227 3.598-3.017 5.467l-1.79 1.87s2.66-1.775 3.53-3.599c.868-1.822 1.277-1.822.92-.747-.359 1.074-1.177 2.85-1.841 3.504-.665.655 2.659-2.57 1.636-.093-1.023 2.478-1.227 3.177-2.557 3.273-1.329.091-1.892-.515-2.659-.327-.767.187-1.176.327-1.176.327s.767-.093 1.33.14c.562.233 1.074.795 1.585.795.511 0-.41.187-1.279.56-.87.373-1.585.56-2.454.468-.87-.092 1.227.841 2.966.561 1.738-.28 1.892-.56 2.812-.653.92-.093 1.228-.047 1.228-.047s-1.176.713-1.535.753c-.358.041-.562.695 2.097-.427 2.659-1.12 4.5-1.635 2.659-.606-1.841 1.029 4.552-1.682 2.096-.092-1.488.963-2.203 1.254-2.537 1.336.607-.048 2.057-.207 2.537-.683.614-.607 1.074-.702 1.28-.653.205.047.154.467.767.14.613-.326 1.994-1.168 1.023-.373-.972.794-1.483 1.542-2.2 2.008-.716.468 1.074-.326 1.79-.982.718-.653 2.506-2.007 1.74-.56-.767 1.449-1.43 1.682-1.43 1.682s1.38-.468 1.789-1.263c.41-.794 1.483-1.494.92-.607-.562.887-1.329 1.87-1.636 2.104-.307.233 1.38-.607 1.892-1.543.51-.933 1.482-2.197.97-.982-.51 1.214-1.177 1.962-1.482 2.336-.306.372 1.432-1.075 2.25-2.29.818-1.215 2.506-5.888 2.609-9.018.102-3.13 0-3.318.306-3.552.305-.233.716-.233.614-.467-.103-.234-.306-.514.256-.188.561.327.459.14.919.093.249-.025.53.07.847.108a.402.402 0 0 1-.342.262c-.583.072-.898 1.667-.898 1.667s-.784 1.6-1.098 2.086c-.314.484-.04.65.167.784.208.137.07.814-.21 1.091-.28.278-.007.443.178 1.126.184.683.067 2.04-.33 3.367-.395 1.329-.298 2.7-.298 2.7s.534-.793.978-2.443c.446-1.65.873-1.038 1.69-.392.816.646.31 3.047.206 5.824-.108 2.778-.976 4.133-.311 3.573.664-.56.733-2.517.733-2.517s.185-5.938.2-8.052c.014-2.112.37-.941.848.586.48 1.527.65 4.175.65 4.175s.233-1.49.184-2.553c-.049-1.065-.61-2.52-.68-3.334-.068-.814.719.673 1.12 2.323.4 1.648.206 2.097.001 3.971-.206 1.873.375 4.769.375 4.769s-.063-1.723.502-5.025c.565-3.304-.633-8.74-.921-11.11-.187-1.527-.964-2.636-1.493-3.233.475-.283.718-.503.718-.503s.717.142 2.045-.605c1.33-.748 1.229-1.168 1.636-1.542.41-.374.615-.234.667-.608.044-.374.402-1.402-.008-1.355zm-3.784 1.776c-.565 0-1.023-.44-1.023-.982s.458-.982 1.023-.982c.041 0 .077.007.115.012a.768.768 0 0 0-.677.749c0 .42.355.76.792.76a.781.781 0 0 0 .782-.65c.005.037.011.073.011.11 0 .543-.458.983-1.023.983z"/></g></svg>